<svg xmlns="http://www.w3.org/2000/svg" width="18" height="18" viewBox="0 0 48 48">
  <path d="M43.6 20.5H42V20.5H24v7.5h11.3C34.8 32.1 30 36 24 36c-6.6 0-12-5.4-12-12s5.4-12 12-12c3.2 0 6 .9 8.2 2.5l5.7-5.7C33.8 6.1 29.2 4 24 4 12.9 4 4 12.9 4 24s8.9 20 20 20 20-8.9 20-20c0-1.3-.1-2.5-.4-3.5z" fill="#FFC107"/>
  <path d="M6.3 14.9l6.6 4.8C14.8 16.1 19.8 12 24 12c3.2 0 6 .9 8.2 2.5l5.7-5.7C33.8 6.1 29.2 4 24 4 16.9 4 10.9 7.9 6.3 14.9z" fill="#FF3D00"/>
  <path d="M24 44c5 0 9.6-1.9 13.1-5.3l-6.2-5.1C29.8 33 27.1 34 24 34c-6 0-10.8-3.9-12.7-9.1l-6.6 5.1C6.7 36.9 14.1 44 24 44z" fill="#4CAF50"/>
  <path d="M43.6 20.5H42V20.5H24v7.5h11.3c-1 3-3 5.6-5.6 7.3l.1.1 6.2 5.1C40.9 39 44 32.9 44 24c0-1.3-.1-2.5-.4-3.5z" fill="#1976D2"/>
</svg>